<svg version="1.1" id="Layer_1" xmlns="http://www.w3.org/2000/svg" xmlns:xlink="http://www.w3.org/1999/xlink" x="0px" y="0px" viewBox="0 0 1063.1 242.3" style="enable-background:new 0 0 1063.1 242.3;" xml:space="preserve" width="100%" height="100%"><style type="text/css"> .st0{fill:#FFFFFF;} .st1{fill:#2D1D44;} .st2{opacity:0.7;} </style><g><path class="st0" d="M521.2,75.3c-2.5-5.8-6-10.9-10.6-15.3c-4.5-4.2-9.4-7.4-14.8-9.5s-11.2-3.2-17.5-3.2c-6,0-11.7,1.2-17.3,3.6 c-5.5,2.4-10.5,5.8-15,10.2c-1.8,1.8-3.4,3.7-4.8,5.7l0.2-19.5c-0.1,0-13,1.2-18.5,3.5c-1.6,0.7-3.1,1.4-4.5,2.3 c-3.7,2.1-7.1,4.7-10.2,7.9c-4.4,4.5-7.6,9.5-9.8,15c-1.1,2.8-1.9,5.7-2.4,8.8V50h-4.1c-9.4,0-17.1,7.6-17.1,17.1v26.4 c0,8.2-2.2,14.6-6.7,19.4s-10.6,7.2-18.2,7.2l0,0l0,0c-7.7,0-13.7-2.4-18.2-7.2c-4.5-4.8-6.7-11.2-6.7-19.4V67 c0-9.4-7.6-17.1-17.1-17.1h-4.1v33.7c0-0.3-0.1-0.5-0.1-0.8c-0.7-3.3-1.8-6.4-3.2-9.3c-4.2-8.4-10-14.9-17.2-19.4 c-7.3-4.6-15.5-6.8-24.6-6.8c-6.7,0-13,1.3-18.7,3.9c-5.7,2.6-10.9,6.4-15.5,11.5c-3.8,4.3-6.7,9.1-8.7,14.5c-2,5.4-3,11.1-3,17.2 c0,6.2,1.2,12.1,3.6,17.7c2.4,5.6,6,10.7,10.6,15.2c4.4,4.4,9.3,7.6,14.8,9.8c5.4,2.1,11.4,3.2,18,3.2c9.6,0,17.9-2.4,24.9-7.1 c2.8-1.9,5.3-4.1,7.6-6.6l-12.6-14c-2.6,3.2-5.6,5.7-9.1,7.3c-3.5,1.6-7.4,2.4-11.8,2.4c-7.6,0-14.1-2.8-19.5-8.3 c-5.3-5.5-8-12.2-8-20.1c0-8,2.7-14.8,8.1-20.3c5.4-5.5,12-8.3,19.9-8.3c5.4,0,10.4,1.5,14.8,4.4s7.7,6.9,9.8,11.9h-24.2 c-8.3,0-15,6.7-15,15h59.2c0.1,1,0.1,1.9,0.3,2.9c0.5,4.3,1.4,8.3,2.9,12c2.2,5.5,5.5,10.5,9.8,15c3.1,3.2,6.5,5.8,10.2,7.9 c1.5,0.9,3,1.6,4.5,2.3c5.4,2.3,11.5,3.5,18.1,3.5c0.1,0,0.1,0,0.2,0s0.1,0,0.2,0c6.6,0,12.6-1.2,18.1-3.5c1.5-0.7,3.1-1.4,4.5-2.3 c3.7-2.1,7.1-4.7,10.2-7.9c4.4-4.5,7.6-9.5,9.8-15c1.1-2.8,1.9-5.7,2.4-8.8v34.9h4c9.4,0,17.1-7.6,17.1-17.1V94.2 c0-8.2,2.2-14.6,6.7-19.4c4.4-4.7,10.3-7,17.7-7.1c-1.8,2.6-3.2,5.3-4.4,8.3c-2.3,5.6-3.4,11.4-3.4,17.6c0,6.1,1.1,11.9,3.3,17.5 c2.2,5.5,5.4,10.6,9.7,15.2c4.5,4.7,9.4,8.2,14.9,10.6c5.4,2.3,11.5,3.5,18.1,3.5s12.6-1.2,18.2-3.5s10.6-5.7,15-10.3 c4.4-4.5,7.6-9.5,9.8-15s3.3-11.7,3.3-18.4C525,87,523.7,81.1,521.2,75.3z M496.9,112.6c-4.5,4.9-10.5,7.3-18.1,7.3 c-7.7,0-13.7-2.4-18.2-7.2c-4.5-4.8-6.7-11.2-6.7-19.4c0-7.6,2.3-13.8,7-18.7c4.6-4.8,10.6-7.2,18-7.2c7.1,0,13.1,2.4,17.8,7.2 c4.7,4.8,7.1,10.9,7.1,18.3C503.7,101.2,501.4,107.7,496.9,112.6z"/><path class="st0" d="M78.5,51.7c1.8,3.6,3.2,7.5,4.4,11.4c1.6-0.4,3.1-0.9,4.5-1.4c2.2-0.8,4.2-1.8,6-2.9 c5.5-3.3,9.8-7.6,13.1-11.8c0.8-1.1,1.8-2.1,2.8-2.9c-0.7-3.6-2.5-6.9-5.1-9.5c-1-1-2-1.8-3.1-2.5c-1.5-1-3.2-1.8-5-2.3 c-2-0.6-4.2-0.8-6.5-0.6c-1.1,0.1-2.3,0.3-3.4,0.6c-0.7,0.2-1.4,0.4-2,0.7c-1.3,0.5-2.5,1.2-3.6,1.9c-4.1,2.8-6.9,7.2-7.7,12.1 C75.2,46.4,77.1,48.8,78.5,51.7z"/><path class="st0" d="M91.7,24.4c6.2,0,11.2-5,11.2-11.2C102.9,7,97.9,2,91.7,2S80.6,7,80.6,13.2S85.6,24.4,91.7,24.4z"/><path class="st0" d="M105,135.9c-1.8-3.6-3.2-7.4-4.4-11.4c-1.6,0.4-3.1,0.9-4.5,1.4c-2.2,0.8-4.2,1.8-6,2.9 c-5.5,3.3-9.8,7.6-13.1,11.8c-0.8,1.1-1.8,2.1-2.8,2.9c0.7,3.6,2.5,6.9,5,9.5c1,1,2,1.8,3.1,2.6c1.5,1,3.2,1.8,5,2.3 c2,0.6,4.2,0.8,6.5,0.6c1.1-0.1,2.3-0.3,3.4-0.6c0.7-0.2,1.4-0.4,2-0.7c1.3-0.5,2.5-1.2,3.6-1.9c4.1-2.8,6.9-7.2,7.7-12.1 C108.3,141.2,106.4,138.8,105,135.9z"/><path class="st0" d="M91.7,163.2c-6.2,0-11.2,5-11.2,11.2s5,11.2,11.2,11.2s11.2-5,11.2-11.2C102.9,168.2,97.9,163.2,91.7,163.2z"/><path class="st0" d="M155.9,88.2c-0.2-0.7-0.4-1.4-0.7-2c-0.5-1.3-1.2-2.5-1.9-3.6c-2.8-4.1-7.2-6.9-12.1-7.7 c-2,2.3-4.4,4.2-7.3,5.7c-3.6,1.8-7.5,3.2-11.4,4.4c0.4,1.6,0.9,3.1,1.4,4.5c0.8,2.2,1.8,4.2,2.9,6c3.3,5.5,7.6,9.8,11.8,13.1 c1.1,0.8,2.1,1.8,2.9,2.8c3.6-0.7,6.9-2.5,9.5-5c1-1,1.8-2,2.6-3.1c1-1.5,1.8-3.2,2.3-5c0.6-2.1,0.8-4.2,0.6-6.5 C156.4,90.5,156.2,89.4,155.9,88.2z"/><path class="st0" d="M172.3,82.6c-6.2,0-11.2,5-11.2,11.2s5,11.2,11.2,11.2s11.2-5,11.2-11.2S178.5,82.6,172.3,82.6z"/><path class="st0" d="M56.7,92.1c-3.3-5.5-7.6-9.8-11.8-13.1c-1.1-0.8-2.1-1.8-2.9-2.8c-3.6,0.7-6.9,2.5-9.5,5c-1,1-1.8,2-2.6,3.1 c-1,1.5-1.8,3.2-2.3,5C27,91.5,26.8,93.7,27,96c0.1,1.1,0.3,2.3,0.6,3.4c0.2,0.7,0.4,1.4,0.7,2c0.5,1.3,1.2,2.5,1.9,3.6 c2.8,4.1,7.2,6.9,12.1,7.7c1.9-2.3,4.4-4.2,7.3-5.7c3.6-1.8,7.5-3.2,11.4-4.4c-0.4-1.6-0.9-3.1-1.4-4.5C58.8,96,57.8,94,56.7,92.1z "/><path class="st0" d="M11.2,82.6C5,82.6,0,87.6,0,93.8C0,100,5,105,11.2,105s11.2-5,11.2-11.2C22.4,87.6,17.3,82.6,11.2,82.6z"/><polygon class="st1" points="532.3,64.8 549.1,64.8 549.1,138.5 566.6,138.5 566.6,64.8 583.4,64.8 583.4,49.1 532.3,49.1 "/><path class="st1" d="M685.7,49.1l-33.9,87.4l-21.1-32.7c6.5-1.3,11.7-4.4,15.5-9.2c3.8-4.8,5.7-10.7,5.7-17.6c0-5.7-1.3-10.7-4-15 s-6.5-7.6-11.6-9.9c-2.3-1.1-5.1-1.8-8.4-2.3c-3.3-0.5-8.3-0.7-15.1-0.7h-21.2v89.3h17.5V97l23.1,41.5H651h2h16.1l6.9-18.7h33.1 l7.1,18.7H735l-34.2-89.3L685.7,49.1L685.7,49.1z M629.1,88.7c-3.7,2.6-9,3.8-16.1,3.8h-3.9V63.6h6.5c6.5,0,11.3,1.1,14.4,3.4 c3.1,2.3,4.6,5.8,4.6,10.5C634.6,82.4,632.7,86.2,629.1,88.7z M682.1,103.2l10.8-28.8l10.6,28.8H682.1z"/><path class="st1" d="M738.9,66.6v71.9h17.5V49.1C746.7,49.1,738.9,56.9,738.9,66.6z"/><polygon class="st1" points="824.8,106.2 787.9,49.1 771.3,49.1 771.3,138.5 788.5,138.5 788.5,79.7 825.7,138.5 841.9,138.5 841.9,49.1 824.8,49.1 "/><path class="st1" d="M857,138.5c9.7,0,17.5-7.8,17.5-17.5V49.1H857V138.5z"/><polygon class="st1" points="942.9,106.2 906,49.1 889.4,49.1 889.4,138.5 906.6,138.5 906.6,79.7 943.9,138.5 960.1,138.5 960.1,49.1 942.9,49.1 "/><path class="st1" d="M1063,92.5c0-0.7-0.1-1.2-0.1-1.5H1032c-8.3,0-15,6.7-15,15h25.2c-2.1,5-5.4,9-9.8,11.9s-9.4,4.4-14.8,4.4 c-7.8,0-14.5-2.7-19.9-8.2s-8.1-12.3-8.1-20.3c0-7.9,2.7-14.6,8-20.1s11.8-8.3,19.5-8.3c4.3,0,8.3,0.8,11.8,2.4s6.5,4,9.1,7.3 l12.6-14c-2.3-2.6-4.8-4.8-7.6-6.6c-7-4.7-15.3-7.1-24.9-7.1c-6.6,0-12.6,1.1-18,3.2c-5.4,2.1-10.3,5.4-14.8,9.8 c-4.7,4.6-8.2,9.7-10.6,15.2c-2.4,5.6-3.6,11.5-3.6,17.7c0,6.1,1,11.8,3,17.2c2,5.4,4.9,10.2,8.7,14.5c4.6,5.1,9.7,8.9,15.5,11.5 c5.7,2.6,12,3.9,18.7,3.9c9.2,0,17.4-2.3,24.6-6.8c7.3-4.6,13-11,17.2-19.4c1.4-2.9,2.5-6,3.2-9.3s1-6.9,1-10.7 C1063.1,93.6,1063.1,93.1,1063,92.5z"/><path class="st1" d="M88.7,79c1.2,0.2,2.3,0.4,3.5,0.6c0.9,0.1,1.8,0.3,2.7,0.3c2.2,0.2,4.5,0.4,6.7,0.4c1.3,0,2.7,0,4-0.1 c1.4-0.1,2.7-0.2,4.1-0.3c1.4-0.2,2.9-0.4,4.3-0.6c1.2-0.2,2.4-0.5,3.7-0.8c1.2-0.3,2.5-0.6,3.7-1c2.1-0.6,4.2-1.4,6.2-2.3 c1-0.4,2-0.9,3-1.4c5-2.4,8.1-7.2,8.2-12.8c0.1-2.5-0.5-4.9-1.5-7.1c-1-2-2.4-3.7-4.2-5.1c-0.5-0.4-1.1-0.8-1.7-1.1 c-1-0.6-2.1-1-3.2-1.3c-1-0.3-2-0.5-3-0.5c-4.8-0.4-9.6,1.6-12.7,5.6c-1.5,1.9-3.2,3.9-5.3,6c-2.4,2.3-5.2,4.7-8.4,6.7 c-2.7,1.7-5.7,3.3-9.1,4.6c-1.6,0.6-3.3,1.1-5,1.6c0.5,2.6,0.8,5.3,1,8C86.6,78.5,87.6,78.8,88.7,79z"/><path class="st1" d="M154.4,47c4.4-4.4,4.4-11.4,0-15.8s-11.4-4.4-15.8,0c-4.4,4.4-4.4,11.4,0,15.8C142.9,51.3,150,51.3,154.4,47z"/><path class="st1" d="M73.8,107.7c-1.4,0.2-2.9,0.4-4.3,0.6c-1.2,0.2-2.5,0.5-3.7,0.8s-2.5,0.6-3.7,1c-2.1,0.6-4.2,1.4-6.2,2.3 c-1,0.4-2,0.9-3,1.4c-5,2.4-8.1,7.2-8.2,12.8c-0.1,2.5,0.5,4.9,1.5,7.1c1,2,2.4,3.7,4.2,5.1c0.5,0.4,1.1,0.8,1.7,1.1 c1,0.6,2.1,1,3.2,1.3c1,0.3,2,0.5,3,0.5c4.8,0.4,9.6-1.6,12.7-5.6c1.5-1.9,3.2-3.9,5.3-6c2.4-2.3,5.2-4.7,8.4-6.7 c2.7-1.7,5.7-3.3,9.1-4.6c1.6-0.6,3.3-1.1,5-1.6c-0.5-2.6-0.8-5.3-1-8c-1-0.3-2.1-0.5-3.1-0.7c-1.2-0.2-2.3-0.4-3.5-0.6 c-0.9-0.1-1.8-0.2-2.7-0.3c-1.7-0.2-3.5-0.3-5.2-0.4c-0.5,0-1,0-1.5,0c-1.3,0-2.6,0-4,0.1C76.5,107.4,75.1,107.5,73.8,107.7z"/><path class="st1" d="M44.9,156.4c4.4-4.4,4.4-11.4,0-15.8c-4.4-4.4-11.4-4.4-15.8,0s-4.4,11.4,0,15.8S40.6,160.8,44.9,156.4z"/><path class="st1" d="M137.8,133.3c0.6-1,1-2.1,1.3-3.2c0.3-1,0.5-2,0.5-3c0.4-4.8-1.6-9.6-5.6-12.7c-1.9-1.5-3.9-3.2-6-5.3 c-2.3-2.4-4.7-5.2-6.7-8.4c-1.7-2.7-3.3-5.7-4.6-9.1c-0.6-1.6-1.1-3.3-1.6-5c-2.6,0.5-5.3,0.8-8,1c-0.3,1-0.5,2.1-0.7,3.1 c-0.2,1.2-0.4,2.3-0.6,3.5c-0.1,0.9-0.3,1.8-0.4,2.7c-0.2,2.2-0.4,4.5-0.4,6.7c0,1.3,0,2.7,0.1,4c0.1,1.4,0.2,2.7,0.3,4.1 c0.2,1.4,0.4,2.9,0.6,4.3c0.2,1.2,0.5,2.4,0.8,3.7c0.3,1.2,0.6,2.5,1,3.7c0.6,2.1,1.4,4.2,2.3,6.2c0.4,1,0.9,2,1.4,3 c2.5,5,7.2,8.1,12.8,8.2l0,0c2.5,0.1,4.9-0.5,7.1-1.5c2-1,3.7-2.4,5.1-4.2C137.1,134.5,137.4,133.9,137.8,133.3z"/><path class="st1" d="M154.4,156.4c4.4-4.4,4.4-11.4,0-15.8c-4.4-4.4-11.4-4.4-15.8,0c-4.4,4.4-4.4,11.4,0,15.8 C142.9,160.8,150,160.8,154.4,156.4z"/><path class="st1" d="M46.8,52.5c-0.4,0.5-0.8,1.1-1.1,1.7c-0.6,1-1,2.1-1.3,3.2c-0.3,1-0.5,2-0.5,3c-0.4,4.8,1.6,9.6,5.6,12.7 c1.9,1.5,3.9,3.2,6,5.3c2.3,2.4,4.7,5.2,6.7,8.4c1.7,2.7,3.3,5.7,4.6,9.1c0.6,1.6,1.1,3.3,1.6,5c2.6-0.5,5.3-0.8,8-1 c0.3-1,0.5-2.1,0.7-3.1c0.2-1.2,0.4-2.3,0.6-3.5c0.1-0.9,0.2-1.8,0.4-2.7c0.2-2.2,0.4-4.5,0.4-6.7c0-1.3,0-2.7-0.1-4 c-0.1-1.4-0.2-2.8-0.3-4.1c-0.2-1.4-0.4-2.9-0.6-4.3c-0.2-1.2-0.5-2.4-0.8-3.7c-0.3-1.2-0.6-2.5-1-3.7c-0.9-2-1.7-4.1-2.5-6.1 c-0.4-1-0.9-2-1.4-3c-2.5-5-7.2-8.1-12.8-8.2l0,0c-2.5-0.1-4.9,0.5-7.1,1.5C49.9,49.3,48.2,50.7,46.8,52.5z"/><path class="st1" d="M44.9,47c4.4-4.4,4.4-11.4,0-15.8s-11.4-4.4-15.8,0s-4.4,11.4,0,15.8C33.5,51.3,40.6,51.3,44.9,47z"/><g class="st2"><path class="st1" d="M251.6,195.2c-0.3-2.4-1.2-4.3-2.9-5.8s-4.3-2.2-7.8-2.2c-3.2,0-5.9,0.7-8,2s-3.1,3.3-3.1,5.7 c0,2.3,0.7,3.9,2.2,4.9s3.6,1.5,6.3,1.5h6.4v4.6h-6.3c-3,0-5.3,0.6-6.9,1.9c-1.6,1.3-2.4,3.2-2.4,5.6c0,3,1.1,5.2,3.2,6.6 c2.1,1.4,5,2,8.5,2c3.7,0,6.6-1,8.8-2.9s3.5-4.4,3.9-7.3h4.9c-0.7,4.5-2.5,8-5.6,10.5c-3,2.5-7.5,3.8-13.4,3.8 c-2,0-3.9-0.2-5.8-0.7c-1.9-0.5-3.7-1.2-5.2-2.1c-1.6-1-2.8-2.3-3.8-3.9c-1-1.6-1.4-3.6-1.4-5.9c0-1.3,0.2-2.5,0.7-3.7 c0.4-1.1,1-2.1,1.8-2.9c0.7-0.8,1.6-1.5,2.5-2.1s1.8-0.9,2.8-1.2v-0.2c-1.7-0.5-3.2-1.4-4.5-2.9s-1.9-3.4-1.9-5.7 c0-2,0.4-3.7,1.3-5.2s2-2.8,3.5-3.8s3.2-1.8,5.1-2.3c2-0.5,4-0.8,6.2-0.8c4.5,0,8.1,1,10.9,2.9c2.7,2,4.4,5.1,5,9.4h-5V195.2z"/><path class="st1" d="M260.6,184h5.6l12.9,36h0.2c3-5.8,5.5-11.7,7.7-17.8s3.8-12.1,5-18.2h5.2c-3.1,14.1-8.2,27.8-15.3,41h-5.3 L260.6,184z"/><path class="st1" d="M341,225.1c-1.3,0-2.3-0.2-3.1-0.5c-0.8-0.3-1.4-0.8-1.8-1.5c-0.4-0.6-0.7-1.4-0.8-2.3 c-0.1-0.9-0.2-1.8-0.2-2.9v-0.6H335c-0.5,1.4-1.3,2.6-2.4,3.7c-1.1,1.1-2.3,2-3.7,2.8c-1.4,0.8-2.8,1.4-4.4,1.8 c-1.6,0.4-3.1,0.6-4.6,0.6c-3.1,0-5.9-0.6-8.2-1.7c-2.4-1.2-4.3-2.7-5.9-4.7s-2.8-4.3-3.6-6.9c-0.8-2.6-1.2-5.4-1.2-8.3 c0-2.9,0.4-5.7,1.2-8.3c0.8-2.6,2-4.9,3.6-6.9s3.6-3.6,5.9-4.7c2.4-1.2,5.1-1.7,8.2-1.7c1.5,0,3,0.2,4.5,0.6c1.5,0.4,3,1,4.3,1.7 s2.5,1.7,3.5,2.8s1.8,2.4,2.3,3.9h0.2v-8h5v33.8c0,2,1,3,2.9,3c0.6,0,1.1-0.1,1.6-0.3v4.2c-0.6,0.1-1.1,0.2-1.6,0.2 C342.3,225,341.7,225.1,341,225.1z M305.9,204.5c0,2.1,0.3,4.2,0.8,6.3c0.6,2.1,1.4,4,2.5,5.6s2.6,3,4.3,4c1.7,1,3.8,1.5,6.2,1.5 c2.6,0,4.9-0.5,6.8-1.5s3.4-2.4,4.6-4s2.1-3.5,2.6-5.6c0.6-2.1,0.8-4.2,0.8-6.3s-0.3-4.2-0.8-6.3s-1.4-4-2.6-5.6s-2.7-3-4.6-4 s-4.1-1.5-6.8-1.5c-2.4,0-4.5,0.5-6.2,1.5s-3.2,2.4-4.3,4c-1.1,1.6-2,3.5-2.5,5.6S305.9,202.4,305.9,204.5z"/><path class="st1" d="M379.2,225.1c-1.5,0-2.7-0.3-3.4-0.9c-0.7-0.6-1.3-1.4-1.7-2.3l-10.5-29.5l-13,32.8h-5.3l15.8-38.6l-3-8.1 c-0.4-1-0.7-1.8-1.1-2.7c-0.4-0.8-0.8-1.5-1.4-2.1c-0.5-0.6-1.2-1-1.9-1.3c-0.7-0.3-1.7-0.5-2.8-0.5c-1.3,0-2.5,0.2-3.4,0.5v-4.2 c0.9-0.4,2.2-0.6,3.8-0.6c1.6,0,2.9,0.1,4,0.4c1.1,0.3,2,0.8,2.8,1.5s1.5,1.6,2.1,2.8s1.3,2.6,1.9,4.4l16.1,42.6 c0.3,0.7,0.6,1.1,1,1.4c0.4,0.2,0.9,0.3,1.7,0.3c0.6,0,1.1-0.1,1.6-0.3v4.2c-0.6,0.1-1.1,0.2-1.6,0.2 C380.4,225,379.9,225.1,379.2,225.1z"/><path class="st1" d="M417.3,225.1c-1.5,0-2.7-0.3-3.4-0.9c-0.7-0.6-1.3-1.4-1.7-2.3l-10.5-29.5l-13,32.8h-5.3l15.8-38.6l-3-8.1 c-0.4-1-0.7-1.8-1.1-2.7c-0.4-0.8-0.8-1.5-1.4-2.1c-0.5-0.6-1.2-1-1.9-1.3c-0.7-0.3-1.7-0.5-2.8-0.5c-1.3,0-2.5,0.2-3.4,0.5v-4.2 c0.9-0.4,2.2-0.6,3.8-0.6c1.6,0,2.9,0.1,4,0.4c1.1,0.3,2,0.8,2.8,1.5s1.5,1.6,2.1,2.8s1.3,2.6,1.9,4.4l16.1,42.6 c0.3,0.7,0.6,1.1,1,1.4c0.4,0.2,0.9,0.3,1.7,0.3c0.6,0,1.1-0.1,1.6-0.3v4.2c-0.6,0.1-1.1,0.2-1.6,0.2 C418.6,225,418,225.1,417.3,225.1z"/><path class="st1" d="M464.4,225.1c-1.3,0-2.3-0.2-3.1-0.5c-0.8-0.3-1.4-0.8-1.8-1.5c-0.4-0.6-0.7-1.4-0.8-2.3 c-0.1-0.9-0.2-1.8-0.2-2.9v-0.6h-0.2c-0.5,1.4-1.3,2.6-2.4,3.7c-1.1,1.1-2.3,2-3.7,2.8c-1.4,0.8-2.8,1.4-4.4,1.8 c-1.6,0.4-3.1,0.6-4.6,0.6c-3.1,0-5.9-0.6-8.2-1.7c-2.4-1.2-4.3-2.7-5.9-4.7s-2.8-4.3-3.6-6.9c-0.8-2.6-1.2-5.4-1.2-8.3 c0-2.9,0.4-5.7,1.2-8.3c0.8-2.6,2-4.9,3.6-6.9s3.6-3.6,5.9-4.7c2.4-1.2,5.1-1.7,8.2-1.7c1.5,0,3,0.2,4.5,0.6c1.5,0.4,3,1,4.3,1.7 s2.5,1.7,3.5,2.8s1.8,2.4,2.3,3.9h0.2v-8h5v33.8c0,2,1,3,2.9,3c0.6,0,1.1-0.1,1.6-0.3v4.2c-0.6,0.1-1.1,0.2-1.6,0.2 C465.6,225,465.1,225.1,464.4,225.1z M429.3,204.5c0,2.1,0.3,4.2,0.8,6.3c0.6,2.1,1.4,4,2.5,5.6s2.6,3,4.3,4 c1.7,1,3.8,1.5,6.2,1.5c2.6,0,4.9-0.5,6.8-1.5s3.4-2.4,4.6-4s2.1-3.5,2.6-5.6c0.6-2.1,0.8-4.2,0.8-6.3s-0.3-4.2-0.8-6.3 s-1.4-4-2.6-5.6s-2.7-3-4.6-4s-4.1-1.5-6.8-1.5c-2.4,0-4.5,0.5-6.2,1.5s-3.2,2.4-4.3,4c-1.1,1.6-2,3.5-2.5,5.6 S429.3,202.4,429.3,204.5z"/><path class="st1" d="M478.1,184v19.9l22.7-19.9h6.7L490,199.2l18.7,25.8h-6.3l-16.2-22.3l-8.1,6.8v15.6h-5v-41h5V184z"/><path class="st1" d="M529.3,225.1c-2.5,0-4.2-0.7-5-2s-1.2-3.2-1.2-5.5v-29.2h-14.3V184h34v4.3H528v29.5c0,2,1,3,2.9,3 c0.6,0,1.1-0.1,1.6-0.3v4.2c-0.6,0.1-1.1,0.2-1.6,0.2C530.5,225,529.9,225.1,529.3,225.1z"/><path class="st1" d="M554.3,225.1c-2.5,0-4.2-0.7-5-2c-0.8-1.4-1.2-3.2-1.2-5.5V184h5v33.8c0,2,1,3,2.9,3c0.6,0,1.1-0.1,1.6-0.3 v4.2c-0.6,0.1-1.1,0.2-1.5,0.2C555.6,225,555,225.1,554.3,225.1z"/><path class="st1" d="M568.1,184v19.9l22.7-19.9h6.7L580,199.2l18.7,25.8h-6.3l-16.2-22.3l-8.1,6.8v15.6h-5v-41h5L568.1,184 L568.1,184z"/><path class="st1" d="M602.7,184h5v7.1h0.2c1-2.5,2.6-4.5,5.1-6c2.4-1.5,5.1-2.3,8-2.3s5.3,0.4,7.2,1.1c1.9,0.7,3.5,1.8,4.7,3.1 c1.2,1.4,2,3,2.5,5s0.7,4.2,0.7,6.6v41.6h-5v-40.8c0-1.7-0.2-3.4-0.5-4.9s-0.9-2.8-1.7-3.9s-1.9-2-3.2-2.6c-1.4-0.6-3-1-5-1 s-3.8,0.4-5.4,1.1c-1.6,0.7-2.9,1.7-4,2.9s-1.9,2.7-2.5,4.5c-0.6,1.7-0.9,3.6-1,5.6V225h-5L602.7,184L602.7,184z M619.1,179.5H615 l4.4-11.2h6.2L619.1,179.5z"/><path class="st1" d="M694.1,195.2c-0.3-2.4-1.2-4.3-2.9-5.8s-4.3-2.2-7.8-2.2c-3.2,0-5.9,0.7-8,2s-3.1,3.3-3.1,5.7 c0,2.3,0.7,3.9,2.2,4.9s3.6,1.5,6.3,1.5h6.4v4.6h-6.3c-3,0-5.3,0.6-6.9,1.9c-1.6,1.3-2.4,3.2-2.4,5.6c0,3,1.1,5.2,3.2,6.6 c2.1,1.4,5,2,8.5,2c3.7,0,6.6-1,8.8-2.9s3.5-4.4,3.9-7.3h4.9c-0.7,4.5-2.5,8-5.6,10.5c-3,2.5-7.5,3.8-13.4,3.8 c-2,0-3.9-0.2-5.8-0.7c-1.9-0.5-3.7-1.2-5.2-2.1c-1.6-1-2.8-2.3-3.8-3.9c-1-1.6-1.4-3.6-1.4-5.9c0-1.3,0.2-2.5,0.7-3.7 c0.4-1.1,1-2.1,1.8-2.9c0.7-0.8,1.6-1.5,2.5-2.1s1.8-0.9,2.8-1.2v-0.2c-1.7-0.5-3.2-1.4-4.5-2.9s-1.9-3.4-1.9-5.7 c0-2,0.4-3.7,1.3-5.2c0.9-1.5,2-2.8,3.5-3.8s3.2-1.8,5.1-2.3c2-0.5,4-0.8,6.2-0.8c4.5,0,8.1,1,10.9,2.9c2.7,2,4.4,5.1,5,9.4h-5 V195.2z"/><path class="st1" d="M712.7,184v19.9l22.7-19.9h6.7l-17.5,15.2l18.7,25.8H737l-16.2-22.3l-8.1,6.8v15.6h-5v-41h5V184z"/><path class="st1" d="M778.3,188.2v25.3c0,1.7,0,3.2,0.1,4.4s0.1,2.3,0.3,3.2c0.1,0.9,0.3,1.7,0.4,2.3c0.1,0.6,0.3,1.2,0.4,1.7H775 c-0.4-0.6-0.7-1.7-1-3.4s-0.4-4.2-0.4-7.6v-25.8H758c-0.1,2.7-0.3,5.8-0.7,9.3s-0.8,7-1.4,10.5c-0.6,3.5-1.2,6.7-1.8,9.8 c-0.7,3.1-1.4,5.5-2.1,7.3h-4.5c0.8-2.1,1.5-4.6,2.2-7.7c0.7-3,1.3-6.3,1.8-9.7s1-6.8,1.4-10.2s0.6-6.5,0.7-9.3 c-2.7,0-4.7,0.1-6,0.3s-2.4,0.4-3.3,0.8l-0.8-3c1-0.6,2.3-1.1,4-1.4c1.6-0.4,3.9-0.6,6.9-0.6h31.1l-0.5,4h-6.7L778.3,188.2 L778.3,188.2z"/><path class="st1" d="M830.3,225.1c-1.3,0-2.3-0.2-3.1-0.5s-1.4-0.8-1.8-1.5c-0.4-0.6-0.7-1.4-0.8-2.3c-0.1-0.9-0.2-1.8-0.2-2.9 v-0.6h-0.2c-0.5,1.4-1.3,2.6-2.4,3.7c-1.1,1.1-2.3,2-3.7,2.8s-2.8,1.4-4.4,1.8c-1.6,0.4-3.1,0.6-4.6,0.6c-3.1,0-5.9-0.6-8.2-1.7 c-2.4-1.2-4.3-2.7-5.9-4.7c-1.6-2-2.8-4.3-3.6-6.9c-0.8-2.6-1.2-5.4-1.2-8.3c0-2.9,0.4-5.7,1.2-8.3s2-4.9,3.6-6.9s3.6-3.6,5.9-4.7 c2.4-1.2,5.1-1.7,8.2-1.7c1.5,0,3,0.2,4.5,0.6c1.5,0.4,3,1,4.3,1.7s2.5,1.7,3.5,2.8s1.8,2.4,2.3,3.9h0.2v-8h5v33.8c0,2,1,3,2.9,3 c0.6,0,1.1-0.1,1.6-0.3v4.2c-0.6,0.1-1.1,0.2-1.5,0.2C831.6,225,831,225.1,830.3,225.1z M795.3,204.5c0,2.1,0.3,4.2,0.8,6.3 c0.6,2.1,1.4,4,2.5,5.6s2.6,3,4.3,4s3.8,1.5,6.2,1.5c2.6,0,4.9-0.5,6.8-1.5c1.9-1,3.4-2.4,4.6-4s2.1-3.5,2.6-5.6 c0.6-2.1,0.8-4.2,0.8-6.3s-0.3-4.2-0.8-6.3c-0.6-2.1-1.4-4-2.6-5.6s-2.7-3-4.6-4c-1.9-1-4.1-1.5-6.8-1.5c-2.4,0-4.5,0.5-6.2,1.5 s-3.2,2.4-4.3,4s-2,3.5-2.5,5.6S795.3,202.4,795.3,204.5z"/><path class="st1" d="M841.4,179.5h-4.1l4.4-11.2h6.2L841.4,179.5z M845.4,225.1c-2.5,0-4.2-0.7-5-2c-0.8-1.4-1.2-3.2-1.2-5.5V184 h5v33.8c0,2,1,3,2.9,3c0.6,0,1.1-0.1,1.6-0.3v4.2c-0.6,0.1-1.1,0.2-1.5,0.2C846.7,225,846.1,225.1,845.4,225.1z"/><path class="st1" d="M884.5,173.6c-1-0.7-2.3-1.2-4-1.7s-4.1-0.7-7.2-0.7c-3,0-5.2,0.4-6.4,1.2c-1.3,0.8-1.9,1.9-1.9,3.4 c0,0.6,0.1,1.2,0.2,1.7c0.1,0.6,0.4,1.1,0.9,1.7c0.4,0.6,1.1,1.2,2.1,1.9c0.9,0.7,2.2,1.5,3.8,2.5c2,1.2,4,2.3,6.1,3.3 c2,1,4.1,2.3,6.1,4.1c1.1,1,2,1.9,2.9,2.9c0.8,1,1.6,2.1,2.1,3.4c0.6,1.2,1,2.6,1.4,4.2c0.3,1.5,0.5,3.3,0.5,5.3 c0,2.5-0.4,5-1.3,7.3c-0.8,2.4-2.1,4.4-3.7,6.2c-1.6,1.8-3.7,3.2-6.1,4.2c-2.4,1.1-5.2,1.6-8.3,1.6s-5.9-0.5-8.3-1.5 c-2.4-1-4.4-2.3-6.1-4.1c-1.6-1.7-2.9-3.8-3.7-6.2s-1.3-4.9-1.3-7.7c0-3.1,0.5-5.9,1.4-8.3s2.2-4.4,3.7-6.1c1.5-1.7,3.3-3,5.2-4.1 s3.8-1.8,5.7-2.3v-0.3c-2.7-1.2-4.7-2.7-6.1-4.4c-1.4-1.7-2.1-3.6-2.1-5.6c0-2.9,1.1-5,3.3-6.6c2.2-1.5,5.8-2.3,10.7-2.3 c3.1,0,5.5,0.2,7,0.7c1.6,0.5,2.7,0.9,3.5,1.5v4.8L884.5,173.6L884.5,173.6z M885.8,206.8c0-2.4-0.3-4.6-0.9-6.4 c-0.6-1.8-1.5-3.4-2.7-4.8c-1.2-1.4-2.6-2.6-4.3-3.7c-1.7-1.1-3.7-2.1-5.9-3.1c-2,0.4-3.8,1-5.6,2s-3.4,2.2-4.8,3.7 s-2.5,3.3-3.3,5.4c-0.8,2.1-1.2,4.4-1.2,7c0,2,0.3,3.9,0.9,5.8s1.5,3.4,2.7,4.8c1.2,1.4,2.7,2.5,4.5,3.3s3.9,1.3,6.3,1.3 c2.4,0,4.5-0.4,6.3-1.3c1.8-0.8,3.3-2,4.5-3.4s2.1-3,2.7-4.8C885.5,210.6,885.8,208.7,885.8,206.8z"/><path class="st1" d="M924.9,195.2c-0.3-2.4-1.2-4.3-2.9-5.8s-4.3-2.2-7.8-2.2c-3.2,0-5.9,0.7-8,2s-3.1,3.3-3.1,5.7 c0,2.3,0.7,3.9,2.2,4.9s3.6,1.5,6.3,1.5h6.4v4.6h-6.3c-3,0-5.3,0.6-6.9,1.9c-1.6,1.3-2.4,3.2-2.4,5.6c0,3,1.1,5.2,3.2,6.6 c2.1,1.4,5,2,8.5,2c3.7,0,6.6-1,8.8-2.9s3.5-4.4,3.9-7.3h4.9c-0.7,4.5-2.5,8-5.6,10.5c-3,2.5-7.5,3.8-13.4,3.8 c-2,0-3.9-0.2-5.8-0.7c-1.9-0.5-3.7-1.2-5.2-2.1c-1.6-1-2.8-2.3-3.8-3.9c-1-1.6-1.4-3.6-1.4-5.9c0-1.3,0.2-2.5,0.7-3.7 c0.4-1.1,1-2.1,1.8-2.9c0.7-0.8,1.6-1.5,2.5-2.1s1.8-0.9,2.8-1.2v-0.2c-1.7-0.5-3.2-1.4-4.5-2.9s-1.9-3.4-1.9-5.7 c0-2,0.4-3.7,1.3-5.2c0.9-1.5,2-2.8,3.5-3.8s3.2-1.8,5.1-2.3c2-0.5,4-0.8,6.2-0.8c4.5,0,8.1,1,10.9,2.9c2.7,2,4.4,5.1,5,9.4h-5 V195.2z"/><path class="st1" d="M967.5,204.5c0-2.2-0.1-4.3-0.4-6.3c-0.3-2.1-0.7-4-1.2-5.8s-1-3.4-1.6-4.8c-0.6-1.4-1.2-2.6-1.9-3.5h5.6 c0.5,0.8,1,1.9,1.5,3.3c0.5,1.4,1,3,1.5,4.8s0.8,3.7,1.1,5.8s0.4,4.3,0.4,6.6c0,3.3-0.4,6.3-1.1,8.9c-0.7,2.7-1.8,5-3.3,6.8 c-1.5,1.9-3.3,3.3-5.6,4.4c-2.3,1-5,1.5-8.1,1.5c-2.7,0-5-0.3-7-0.8s-3.7-1.4-5-2.7c-1.4-1.2-2.4-2.9-3.1-4.8c-0.7-2-1-4.4-1-7.3 V184h5v26.7c0,3.7,0.8,6.5,2.5,8.4s4.5,2.9,8.5,2.9c2.4,0,4.4-0.4,6-1.3c1.6-0.8,3-2,4-3.5s1.8-3.3,2.3-5.5 C967.2,209.5,967.5,207.1,967.5,204.5z"/><path class="st1" d="M1019.4,184v4.3h-10.3c2.3,1.9,4.1,4.2,5.4,7c1.3,2.8,2,5.9,2,9.3c0,3-0.4,5.8-1.2,8.4 c-0.8,2.6-2,4.9-3.6,6.9s-3.6,3.5-6,4.7s-5.2,1.7-8.3,1.7s-5.9-0.6-8.3-1.7c-2.4-1.2-4.4-2.7-6.1-4.7c-1.6-2-2.9-4.3-3.7-6.9 c-0.8-2.6-1.3-5.4-1.3-8.4c0-2.9,0.4-5.6,1.3-8.1c0.8-2.5,2.1-4.7,3.7-6.5c1.6-1.8,3.7-3.3,6.1-4.3c2.4-1,5.2-1.5,8.3-1.5h22 L1019.4,184L1019.4,184z M997.3,188.3c-2.4,0-4.5,0.4-6.3,1.3c-1.8,0.9-3.3,2.1-4.5,3.6s-2.1,3.2-2.7,5.2c-0.6,2-0.9,4-0.9,6.2 s0.3,4.3,0.9,6.4c0.6,2.1,1.5,3.9,2.7,5.6s2.7,3,4.5,4s3.9,1.5,6.3,1.5c2.4,0,4.5-0.5,6.3-1.5s3.3-2.3,4.5-4s2.1-3.5,2.7-5.6 c0.6-2.1,0.9-4.2,0.9-6.4s-0.3-4.2-0.9-6.2c-0.6-2-1.5-3.7-2.7-5.2s-2.7-2.7-4.5-3.6C1001.8,188.8,999.7,188.3,997.3,188.3z"/><path class="st1" d="M1025.1,184h5v7.1h0.2c1-2.5,2.6-4.5,5.1-6c2.4-1.5,5.1-2.3,8-2.3s5.3,0.4,7.2,1.1c1.9,0.7,3.5,1.8,4.7,3.1 c1.2,1.4,2,3,2.5,5s0.7,4.2,0.7,6.6v41.6h-5v-40.8c0-1.7-0.2-3.4-0.5-4.9s-0.9-2.8-1.7-3.9s-1.9-2-3.2-2.6c-1.4-0.6-3-1-5-1 s-3.8,0.4-5.4,1.1c-1.6,0.7-2.9,1.7-4,2.9s-1.9,2.7-2.5,4.5c-0.6,1.7-0.9,3.6-1,5.6V225h-5L1025.1,184L1025.1,184z"/></g></g></svg>