<svg version="1.1" id="Layer_1" xmlns="http://www.w3.org/2000/svg" xmlns:xlink="http://www.w3.org/1999/xlink" x="0px" y="0px" viewBox="0 0 96.4 121.6" style="enable-background:new 0 0 96.4 121.6;" xml:space="preserve" width="100%" height="100%"><style type="text/css"> .st0{fill:#FFFFFF;} </style><g><path class="st0" d="M64,46.1c1.1-1.4,2-2.8,2.5-4.3c0.1-0.4-0.3-0.6-0.6-0.3c-1.3,1.2-2.2,2.8-3.3,4.1c-1.3,1.6-2.7,3.2-4.1,4.9 c-1.4,1.6-2.5,3.3-3.6,5.1c-1,1.7-2,3.3-3,5c-0.3,0.5-0.6,1-0.9,1.5c0,0.1,0,0.1,0,0.1c0,0.1-0.1,0.1-0.1,0.2c0,0,0,0.1,0,0.1 c-0.3-0.1-0.7-0.3-1-0.3c-1.3-0.3-2.5,0.1-3.4,0.7c0.1-0.1,0.1-0.3-0.1-0.4c-5.4-3.9-9.1-9.7-14.9-13c-0.2-0.1-0.6-0.2-0.8,0 c-0.4,0.1-0.8,0.3-1.2,0.4c-0.5,0-1,0.5-0.8,1c2.9,7.1,8.6,12.4,15.6,15.1c-0.1,0.2-0.1,0.4-0.2,0.7c-0.1,0.5,0.1,1,0.5,1.3 c0.5,0.3,1.6,1.1,2.7,1.6c0.2,0.3,0.4,0.6,0.6,0.8c2,2.3,5.3-1.1,5.6-3.2c0.1-0.9,0-1.7-0.4-2.4c5.1-7,7.8-15.8,14.1-21.8 c0,0,0-0.1,0,0C66.1,43.8,65,44.9,64,46.1z M30.7,51.4c0.6,0,1,0.1,2,0.7c1.7,1.1,3.1,2.6,4.6,3.9c2.9,2.5,5.6,5.1,8.9,7 c0.1,0,0.1,0,0.2,0c-0.5,0.4-1,0.9-1.3,1.5C38.9,61.6,33.7,57.7,30.7,51.4z M50.1,69.1c0.2-0.7-0.8-1.2-1.3-1.5 c-0.3-0.2-0.5-0.3-0.8-0.4c-0.2-0.8-0.2-1.7-0.4-2.5c0.4-0.3,0.9-0.5,1.6-0.5c0.8,0,1.6,0.5,2,1.1c0,0.1-0.1,0.1-0.1,0.2 c-0.4,0.5,0.1,1.1,0.5,1C51.7,67.2,50.9,68.6,50.1,69.1z M52.5,63.6c-0.4-0.4-0.8-0.7-1.3-1c1.1-0.5,4-5.5,4.4-6.2 c1.4-2,2.9-3.9,4.4-5.8c0.9-1.1,1.9-2.2,3-3.4c-1.4,1.8-2.7,3.6-3.9,5.6C57,56.5,55,60.2,52.5,63.6z"/><path class="st0" d="M46.8,41c0.6-1.3,0.6-2.4,0.7-3.8c0-0.7,0.1-1.5,0.2-2.2c0.1-1,0-1.7,0-2.6c0-0.2-0.4-0.4-0.5-0.1 c-0.3,0.7-0.6,0.8-0.8,1.5c-0.2,0.9-0.4,1.8-0.6,2.6c-0.4,1.7-0.6,3,0.1,4.6C46,41.3,46.6,41.3,46.8,41z"/><path class="st0" d="M51,86.5c-0.1-0.3-0.5-0.3-0.8-0.2c-1.7,0.9-1.8,3.7-2,5.4c-0.2,2.3,0.4,4.2,1.9,5.9c0.3,0.4,1,0,0.8-0.5 c-0.7-2.1-0.8-4.3-0.3-6.4C50.9,89.4,51.6,87.8,51,86.5z"/><path class="st0" d="M24.9,65c0.1-0.3-0.1-0.6-0.3-0.7c-1-0.6-2.2-0.2-3.3,0c-1.7,0.3-3.5,0-5.2-0.5c-1.2-0.3-1.7,1.5-0.5,1.9 C17.8,66.5,23.9,68.2,24.9,65z"/><path class="st0" d="M82.1,61c-1.2-0.4-2.6,0-3.8,0.3c-1.6,0.3-3.3,0.6-4.9,0.9c-0.6,0.1-0.5,1.1,0.1,1c1.5-0.1,3-0.2,4.5-0.3 c1.4,0,3.1,0.1,4.3-0.7C82.7,61.9,82.7,61.2,82.1,61z"/><path class="st0" d="M60.2,44c0.7-1.2,1.4-2.3,2.2-3.4c0.6-0.9,1.9-1.8,2.2-2.9c0.1-0.4-0.3-0.8-0.7-0.7c-1.1,0.3-1.7,1.8-2.3,2.6 c-0.8,1.3-1.5,2.6-2.1,4C59.4,44,60,44.4,60.2,44z"/><path class="st0" d="M76.4,48.4c0.3-0.2,0.3-0.7-0.1-0.8c-3.4-0.5-6.4,2.9-8.5,5.2c-0.6,0.7,0.3,1.6,1,1c1.2-1.1,2.5-2.2,3.9-3.1 C73.9,49.8,75.2,49.2,76.4,48.4z"/><path class="st0" d="M75.4,74.8c-1.2-0.6-2.6-0.9-3.9-1c-0.6-0.1-0.8,0.6-0.2,0.9c1.3,0.5,2.4,1.3,3.6,1.9c1,0.6,1.8,1.5,3,1.3 c0.3-0.1,0.4-0.4,0.4-0.7C78.1,76,76.4,75.4,75.4,74.8z"/><path class="st0" d="M63.8,85.2c-0.4-0.5-1.3-1.4-1.8-0.6c0,0,0,0,0,0c0.2,0.1,0.5,1.9,0.6,2.2c0.4,1.4,0.8,2.7,1.2,4.1 c0.5,1.7,3,0.7,2.3-1C65.4,88.5,64.9,86.6,63.8,85.2z"/><path class="st0" d="M38.9,85.7c-0.4,0.3-1.2,0.8-1.5,1.1c-0.4,0.6-0.9,1.1-1.3,1.7c-0.7,1-2.1,2.3-1.9,3.5 c0.1,0.4,0.3,0.6,0.7,0.6c1.3-0.2,1.8-2,2.3-3c0.3-0.6,0.6-1.2,0.9-1.8c0.3-0.7,0.5-1.4,1-2C39.2,85.7,39,85.6,38.9,85.7z"/><path class="st0" d="M28.5,77.3c-2.6-0.2-5.4,0.4-7.8,1.5c-0.9,0.4-0.2,1.9,0.6,1.5c2.4-0.8,5-1.6,7.2-2.8 C28.6,77.4,28.6,77.3,28.5,77.3z"/><path class="st0" d="M22.6,51.1c0.7,0.3,1.3,0.5,2.1,0.6c0.7,0.1,1.1-0.2,1.7-0.3c0.2,0,0.2-0.3,0-0.3c-0.4-0.1-0.6-0.3-0.9-0.5 c-0.6-0.2-1.1-0.5-1.7-0.8c-1.3-0.7-1.9-1.7-2.7-2.9c-0.6-1-2.4-0.4-1.9,0.8C19.8,49.2,21.2,50.3,22.6,51.1z"/><path class="st0" d="M34.5,44c0.2,0.3,0.7,0.1,0.6-0.2c-0.5-1.5-0.9-3-1.5-4.5C33.1,37.9,33,36.1,32,35c-0.3-0.4-0.8-0.1-1,0.3 c-0.5,1.4,0.4,3.1,0.9,4.4C32.6,41.3,33.5,42.6,34.5,44z"/><path class="st0" d="M88.5,51.4c0.1-0.2,0.1-0.4-0.1-0.5c-0.7-2.7-1.8-5.3-3-7.8c0.3-0.2,0-0.6-0.3-0.5c-0.5-1-1.1-2-1.7-2.9 c-5.3-8.2-13.8-13.7-23-16.4c-9.8-2.8-20.9-2.4-30.1,2.1c-8.6,4.2-14.7,12.1-18.2,20.8c-1.7,4.3-2.6,8.8-3,13.3c-0.1,0-0.2,0-0.2,0 c-0.1-1-0.1-2-0.1-3c0,0,0,0,0,0c0,1,0,2,0,3.1c0,0,0,0,0,0c-0.1,0-0.1,0.2,0,0.2c0,0,0,0,0,0c0,1.1,0,2.2,0.1,3.3 c-0.1,1.3-0.1,2.6-0.1,3.9c0,0,0,0,0,0c0-1.1,0-2.1,0.1-3.2c0.4,9.8,2,19.6,7.4,28.1c2,3.2,4.5,5.6,7.4,7.4 c-0.7,2.1-0.7,4.4-0.8,6.5c0,0,0,0,0,0c-0.5,1.1-1,2.3-1.5,3.4c-0.5,1.2-2.1,3.6-2.3,5.4c-0.4,0.1-0.7,0.7-0.4,1 c0.7,1,1.9,1.1,2.6,2.1c0.3,0.4,1,0.6,1.3,0c1.8-3.9,4.1-7.6,6.3-11.3c0.2-0.1,0.4-0.2,0.5-0.3c1.2-0.7,2.1-2,2.2-3.3 c2,0.7,4.2,1.2,6.3,1.6c0,0.1,0,0.1,0,0.2c0,0.3,0.4,0.4,0.6,0.2c0.1-0.1,0.2-0.2,0.3-0.3c0.9,0.2,1.7,0.3,2.6,0.5 c10.8,1.9,21.6-1.3,30.2-8c1.2-1,2.4-2,3.6-3.1c0,0.1-0.1,0.3,0,0.4c0.3,2.1-0.1,4.5-1.5,6.2c-1.7,2.1-4.1,1.1-5.7-0.5 c-0.5-0.4-1.1,0.2-0.7,0.7c1.4,1.6,3.3,2.7,5.2,2.3c0.5,1.5,1.3,2.8,2.2,4.2c0.7,1,1.7,2.7,3,3.2c0.1,0.2,0.2,0.4,0.4,0.6 c0,0,0.1,0,0.1,0c0-0.2,0-0.3,0-0.4c0.4,0,0.6-0.4,0.6-0.8c-0.1-0.3-0.2-0.5-0.3-0.7c0.1-0.2,0.1-0.3,0.2-0.5 c0.6,0.5,1.7-0.1,1.4-0.9c-0.1-0.2-0.2-0.5-0.3-0.7c0-0.2-0.1-0.4-0.2-0.6c-1-2.4-2.3-4.6-3-7.1c0-0.1,0-0.1-0.1-0.1 c0.6-1.6,0.7-3.4,0.4-5.2c-0.1-0.6-0.6-0.7-1-0.6c1-1,1.9-2,2.8-3c0.6,0.3,1.4-0.1,1.1-0.8c0-0.1-0.1-0.2-0.2-0.4 c3.3-4,6-8.6,7.7-13.5c0.1,0,0.2,0,0.4-0.1c0.1,0,0.2-0.2,0.2-0.3c0-0.2-0.1-0.3-0.2-0.5c0.5-1.5,0.9-2.9,1.1-4.4 c0.1-0.1,0.2-0.2,0.2-0.3c0.1-2.9,1.1-5.5,1.1-8.4c0-2.7-0.3-5.5-0.8-8.1C88.8,52.8,88.6,52.1,88.5,51.4z M77.5,107 c-0.2,0.2-0.4,0.4-0.6,0.6c-0.3-0.3-0.6-0.6-0.9-0.9c-1-1.2-1.9-2.6-2.8-4c0.2-0.1,0.5-0.3,0.7-0.5c0.6-0.5,1.1-1,1.4-1.6 C75.8,102.8,76.6,105,77.5,107z M80.6,37.2c-0.5,0.2-0.9,0.7-1.3,1c-0.5,0.4-1.1,0.7-1.7,1c-0.1,0.1-0.2,0.1-0.2,0.2 c-3-3.4-6.6-6.1-10.6-8.1c1.2-1,3-1.5,3.8-2.8c1.7,1,3.3,2.2,4.9,3.5c-1.4-0.1-2.6,0.9-3.3,2.2c-0.2,0.5,0.4,0.9,0.7,0.4 c0.6-1.2,1.6-1.7,2.9-2c0.1,0,0.2-0.1,0.2-0.2c0.3,0.3,0.6,0.5,0.9,0.8C78.2,34.4,79.4,35.8,80.6,37.2z M75.8,84.4 C71,91.9,63.6,97.2,55,99.5c-7,1.9-15.1,0.5-21.7-2c-0.8-0.3-1.6-0.6-2.4-1v-0.1c0-0.4-0.5-0.4-0.7-0.2c-3.8-1.9-7.2-4.5-9.9-7.8 c0.2,0,0.3-0.1,0.5-0.2c0.4-0.3-0.1-0.9-0.5-0.6c-0.8,0.6-2.6-2.8-4-5.9c0.3-0.3,0.5-0.6,0.7-0.9c0.1-0.2-0.1-0.5-0.4-0.4 c-0.2,0.2-0.5,0.4-0.7,0.6c-0.9-1.9-1.5-3.6-1.7-3.9c-0.3-0.7-0.5-1.4-0.7-2c0.1-0.1,0.2-0.2,0.3-0.3c0.4-0.4-0.2-1-0.6-0.7 c-0.3-1.4-0.6-2.8-0.7-4.2c0,0,0,0,0,0c0.6-0.3,0.4-1-0.1-1.2c-0.1-1.3-0.1-2.6,0-4c0.1-0.1,0.2-0.2,0.3-0.3c0.4-0.3,0.2-0.8-0.2-1 c0.2-2.5,0.7-4.9,1.3-7.4c0.2-0.9,0.5-1.8,0.8-2.6c0.1-0.1,0.2-0.1,0.2-0.2c0.2-0.2,0.2-0.5,0-0.6c3.5-10.2,11.1-18.6,21.5-22.1 c5-1.7,10.3-2.1,15.5-1.5c0,0.1,0,0.2,0,0.3c0,0.3,0.4,0.4,0.6,0.2c0.1-0.1,0.1-0.3,0.2-0.4c2.2,0.3,4.4,0.8,6.6,1.5 c0.1,0.1,0.2,0.2,0.4,0.2c0,0,0,0,0.1,0c12.8,4.2,23.2,15,23.5,29.5C83.7,68.4,80.3,77.4,75.8,84.4z M68.1,97.5 c0.1,0.1,0.1,0.1,0.2,0.1c-1.2,0.8-2.5,1.6-3.8,2.3c0,0,0.1-0.1,0.1-0.1c0.2-0.5,0.2-1,0.2-1.4c0-0.3-0.2-0.5-0.5-0.5 c1.3-0.7,2.6-1.5,3.7-2.4c0,0.2,0,0.5,0,0.7C67.9,96.6,67.7,97.1,68.1,97.5z M52.9,102.9c0.1-0.4,0.1-0.8,0.1-1.2 c2.2-0.4,4.4-0.9,6.5-1.7c-0.1,0.4-0.3,0.8-0.8,1.1c-0.5,0.3-0.1,1.1,0.5,0.8c0.5-0.2,0.9-0.5,1-1c0.1-0.4,0.1-0.8,0-1.2 c1.1-0.4,2.2-1,3.3-1.5c0,0.1,0,0.1,0,0.2c0,0.3,0,0.7-0.1,1c-0.1,0.3-0.3,0.4-0.6,0.6c-0.4,0.2-0.3,0.6-0.1,0.9 c-3.4,1.6-7,2.7-10.7,3.2C52.4,103.7,52.8,103.3,52.9,102.9z M46.6,22.2c8.1-0.2,16.2,1.8,23.2,5.9c-0.6,0.4-1.2,0.8-1.9,1.3 c-0.7,0.5-1.4,1-2,1.6c-1.5-0.7-3-1.3-4.5-1.8c0.1-0.2,0.2-0.3,0.2-0.5c0.4-0.8,0.6-1.7,0.6-2.7c0-0.4-0.6-0.4-0.6,0 c-0.1,0.9-0.5,1.7-1,2.4c-0.1,0.1-0.2,0.3-0.3,0.4c-2.3-0.7-4.6-1.2-7-1.5c0.2-1.5,0.1-3.1,0.3-4.4c0-0.1-0.1-0.2-0.2,0 c-0.4,1.3-0.9,2.9-1.1,4.3c-1.9-0.2-3.9-0.2-5.9-0.2c0-1.4,0-2.8,0-4.2c0-0.3-0.4-0.3-0.4,0c0,1.4,0,2.8,0,4.2 c-1.9,0.1-3.9,0.4-5.7,0.8c0.1-1.4,0-3,0-4.4c0-0.3-0.5-0.3-0.5,0c0,1.5-0.2,3,0,4.5c-1.9,0.4-3.7,1-5.5,1.7 c0.1-1.3-0.5-2.6-1.2-3.8c-0.2-0.3-0.8-0.1-0.6,0.3c0.4,1.3,0.6,2.6,0.9,3.9c-1.2,0.5-2.4,1.1-3.6,1.8c-0.1-0.1-0.3-0.1-0.5-0.2 c-0.3-0.1-0.5-0.3-0.7-0.5c-0.5-0.5-0.5-1.2-0.5-1.9c0-0.6-1-0.6-1,0c0,0.8,0.1,1.7,0.6,2.4c0.2,0.3,0.6,0.7,1,0.9 c-0.3,0.2-0.6,0.4-0.9,0.6c-1.3,0.8-2.4,1.8-3.5,2.8c-0.2-0.1-0.5-0.3-0.8-0.4c-0.7-0.4-1.3-0.8-1.9-1.3c-0.3-0.3-0.8,0.2-0.5,0.5 c0.5,0.6,1.1,1,1.8,1.5c0.2,0.1,0.4,0.3,0.7,0.4c-3,2.9-5.3,6.2-7.2,9.9c-0.1,0-0.1,0-0.2,0c-0.4,0.1-0.8,0.1-1.2,0 c-0.7-0.1-1.3-0.4-1.8-0.8c0,0,0,0,0,0c0.8-1.9,1.7-3.7,2.7-5.4c0.1,0.4,0.3,0.7,0.5,1c0.5,0.6,1.1,1,1.9,1.1c0.5,0,0.7-0.6,0.4-1 c-0.4-0.4-0.8-0.5-1.3-0.8c-0.4-0.2-0.8-0.5-0.8-1c0-0.1-0.1-0.2-0.1-0.2c0.6-1,1.3-2,2-3C24.8,27.2,35.4,22.4,46.6,22.2z M12.6,46.3c0.5,0.6,1,1.1,1.8,1.4c0.3,0.1,0.7,0.2,1.1,0.2c-0.7,1.5-1.3,2.9-1.8,4.5c-0.3,0-0.5,0.1-0.8,0.1 c-0.8,0.1-1.4,0-2.1-0.5c0,0-0.1-0.1-0.1-0.1C11.2,49.9,11.9,48.1,12.6,46.3z M10.5,52.6c0.5,0.6,1.2,1,2,1.1 c0.2,0,0.5,0.1,0.7,0.1c-0.5,1.7-0.9,3.4-1.3,5.2c-0.9-0.1-1.9,0.2-2.8,0.4C9.4,57.1,9.9,54.8,10.5,52.6z M8.7,59.7 c0.1,0,0.1,0,0.2,0c0,0.4-0.1,0.9-0.1,1.3C8.7,60.5,8.7,60.1,8.7,59.7z M9.1,59.7c0.8,0.2,1.8,0.4,2.7,0.4 c-0.1,0.4-0.2,0.9-0.2,1.3c-0.1,0.9-0.2,1.8-0.3,2.8c-0.1,0.1-0.2,0.1-0.3,0.1c-0.5,0.2-0.9-0.3-1.2-0.7c-0.1-0.1-0.3-0.1-0.3,0.1 c0,0.9,0.3,1.8,1.3,1.8c0.1,0,0.3,0,0.4,0c0,1.1,0,2.3,0.1,3.4c-0.1,0.1-0.3,0.1-0.4,0.2c-0.3,0.2-0.6,0.3-1,0.4 c-0.4-2.6-0.8-5.2-1-7.8C8.9,61,9,60.4,9.1,59.7z M23.8,99.4c0.5,0.3,1,0.6,1.5,0.8c0,0-0.1,0-0.1,0.1c-0.5,1-1,2.1-1.5,3.1 C23.6,102.1,23.6,100.7,23.8,99.4z M21.5,115.9c-0.3-0.3-0.6-0.5-0.9-0.7c0-0.2,0-0.5-0.1-0.7c0.2-0.8,0.8-1.9,0.9-2.3 c0.5-1.4,1-2.8,1.6-4.2c0.2-0.5,0.4-1,0.6-1.5c1.4,0.4,2.8,0.5,4.2,0.2C25.5,109.5,23.4,112.6,21.5,115.9z M28,104.7 c-1.1,0.7-2.6,0.7-3.9,0.5c0.6-1.5,1.1-3.1,1.4-4.8c0,0,0-0.1,0-0.1c1.3,0.7,2.8,1.3,4.2,1.9C29.3,103.2,29,104.1,28,104.7z M39.5,103.4c0.2-0.2,0.5-0.4,0.7-0.7c0.2-0.2-0.1-0.5-0.3-0.3c-0.4,0.3-0.8,0.5-1.3,0.8c-2.6-0.5-5.2-1.2-7.6-2 c-0.1-0.2-0.3-0.2-0.5-0.2c-5.4-2-10.1-5.1-13.6-10.4c-3.1-4.8-4.8-10.4-6-16c-0.3-1.4-0.6-2.7-0.8-4.1c0.4,0,0.7,0,1.1-0.1 c0.1,0,0.2,0,0.2,0c0.2,1.6,0.5,3.2,1,4.8c-0.1,0.1-0.2,0.2-0.3,0.3c-0.1,0.1-0.1,0.1-0.2,0.1c0-0.1,0-0.3,0-0.4 c0-0.2-0.2-0.2-0.3,0c-0.1,0.2-0.1,0.5-0.2,0.7c-0.1,0.2,0.1,0.5,0.4,0.5c0.3,0,0.6-0.2,0.8-0.4c0.2,0.7,0.5,1.5,0.8,2.2 c0.5,1.1,1,2.3,1.6,3.6c-0.4,0.3-0.8,0.6-1.2,0.8c0,0,0,0.1,0,0.1c0.5,0.1,1.1,0,1.5-0.2c0.4,0.8,0.8,1.5,1.2,2.2 c0.2,0.6,0.4,1.1,0.6,1.7c-0.4,0.5-0.8,0.9-1.4,1.2c-0.5,0.2-0.1,0.9,0.4,0.7c0.6-0.3,1-0.6,1.4-1c0.9,1.8,2,3.4,3.4,4.8 c0,0.3,0,0.5-0.1,0.8c-0.1,0.3,0.1,0.4-0.1,0.6c-0.2,0.3-0.4,0.5-0.7,0.6c-0.1,0.1,0,0.2,0.1,0.2c0.3-0.1,0.5-0.3,0.8-0.5 c0.1-0.1,0.2-0.2,0.2-0.2c0.1-0.2,0.3-0.2,0.4-0.4c0.1-0.1,0.1-0.2,0.1-0.4c0.9,0.9,1.9,1.6,2.9,2.4c-0.2,0.7-0.3,1.4-0.6,2.1 c-0.1,0.3,0.3,0.6,0.5,0.3c0.2-0.5,0.4-0.9,0.5-1.4c0-0.2,0.1-0.4,0.2-0.5c3.2,2.2,7,3.8,10.5,4.8c4.3,1.3,8.6,1.9,12.8,1.8 c-0.8,0.7-1.5,1.4-2.3,2.1c-1.6,0-3.2-0.2-4.8-0.5C40.8,103.6,40.1,103.5,39.5,103.4z M47.2,104.2c0.7-0.7,1.3-1.4,2-2.2 c1-0.1,2-0.1,3-0.3c0,0.2,0,0.5-0.1,0.7c-0.1,0.3-0.4,0.4-0.6,0.6c-0.4,0.2-0.3,0.7,0,0.9C50,104.1,48.6,104.2,47.2,104.2z M75.1,91.8c0-0.1,0-0.3,0-0.4c0-0.5-0.2-1-0.3-1.5c0-0.2-0.3-0.2-0.3,0c0,0.2-0.1,0.5-0.1,0.7c0,0.2-0.2,0.4-0.2,0.6 c0,0.6,0,1.1,0,1.7c0,0,0,0,0,0c-0.7,0.7-1.4,1.3-2.2,2c-1.1,0.9-2.1,1.7-3.3,2.5c0.2-0.4,0.1-0.8,0.1-1.3c0-0.4-0.1-0.8-0.1-1.2 c3-2.4,5.6-5.2,7.8-8.4c0.4,0.9,0.8,1.7,1.2,2.6C76.8,90,76,91,75.1,91.8z M88.2,67.4c-0.2,0-0.4,0.1-0.5,0.4 c-0.5,2.1-1.1,4.1-1.8,6.1c-0.6-0.4-1.1-0.8-1.8-1.1c-0.4-0.2-0.8,0.4-0.4,0.6c0.6,0.4,1.2,0.9,1.8,1.4c-0.7,1.9-1.4,3.8-2.3,5.6 c0,0,0-0.1,0-0.1c-0.2-0.5-0.6-0.7-1.1-0.8c-0.4-0.2-0.9-0.3-1.3-0.3c-0.3,0-0.4,0.5-0.1,0.5c0.4,0.1,0.7,0.2,1,0.4 c0.2,0.1,0.3,0.3,0.5,0.4c0.2,0.2,0.4,0.2,0.6,0.3c0.1,0,0.2,0,0.2,0c-0.3,0.6-0.6,1.2-1,1.9c-1,1.8-2.2,3.5-3.5,5.1 c-0.5-0.8-1-1.6-1.5-2.4c2.4-3.7,4.3-7.7,5.7-11.9c3.3-10,3.4-20.4-2.2-29.5c-0.9-1.4-1.8-2.7-2.9-4c0,0,0.1,0,0.1,0 c0.7-0.3,1.3-0.6,1.9-1c0.4-0.3,1-0.6,1.2-1c1.2,1.6,2.2,3.2,3.1,4.9c-0.9,0.5-1.7,1.1-2.4,1.9c-0.1,0.1,0,0.2,0.1,0.1 c0.8-0.7,1.6-1.2,2.5-1.6c1.2,2.4,2.2,4.9,2.9,7.5c-0.5,0.1-1,0.2-1.5,0.3c-0.7,0.2-1.2,0.3-1.6,0.9c-0.1,0.1,0,0.3,0.2,0.3 c0.6,0.1,1.1-0.1,1.7-0.2c0.5-0.1,1-0.2,1.4-0.4c0.4,1.8,0.8,3.6,1,5.4c-0.1-0.1-0.2-0.2-0.4-0.2c-1.2,0-2.4,0.2-3,1.3 c-0.2,0.5,0.4,0.8,0.7,0.4c0.5-0.8,1.4-0.8,2.3-0.8c0.2,0,0.4-0.1,0.4-0.3c0.2,1.8,0.3,3.6,0.2,5.4C88.9,64.5,88.5,66,88.2,67.4z"/><path class="st0" d="M86.5,65.5c-0.5-0.1-1,0-1.5,0c-0.3,0-0.3,0.6,0,0.6c0.7,0.1,1.3,0.2,1.7,0.9c0.3,0.5,1,0.1,0.8-0.4 C87.3,66.1,87,65.7,86.5,65.5z"/><path class="st0" d="M33.9,21.4c0.5-0.1,0.6-0.6,0.3-1c-0.7-4.4-2.7-8.5-7.6-8.9c-3.9-0.3-8,1.7-11.4,3.9c-0.6-1.4-1.5-2.8-3-3.3 c-1.4-0.5-2.8-0.1-4,0.8c-1.2,1-1.8,2.5-2,4c-0.1,1.6,0.5,2.9,1.4,4c-2.9,2.7-5.3,5.8-6.8,9.5c-2.6,6.4,0.1,12.6,5.4,16.6 c0.1,0.1,0.3-0.1,0.2-0.2c-4.8-4.8-6.9-10.8-4-17.2c2.3-5,6.8-8.8,11.3-11.9c0.3-0.2,0.5-0.4,0.8-0.5c0.4,0.1,0.9-0.2,0.9-0.6 c2.9-1.8,6-3.4,9.4-3.9c5-0.6,7.3,3.1,8.1,7.4C20.3,22.9,12.5,34.8,7.4,45.8C7.3,46,7.5,46.1,7.6,46C13.3,35.5,21.3,23.6,33.9,21.4 z M13.2,16.7c-1.8,1.2-3.6,2.6-5.3,4.1c-1.1-2.2-1.2-4.8,0.7-6.6c0.7-0.7,1.8-1.1,2.8-0.8c1.3,0.3,2,1.6,2.5,2.8 C13.7,16.3,13.5,16.5,13.2,16.7z"/><path class="st0" d="M96.1,31.3c-0.6-4.1-1.9-7.9-3.9-11.2c1-0.4,2-0.7,2.9-1.5c0.6-0.6-0.1-2.4-0.3-3.1c-0.5-1.8-1.7-3.8-3.6-4.4 c-0.9-0.3-1.8-0.3-2.8-0.2c-1.4,0.2-1.7,0.5-1.9,1.8c-0.1,0.4,0,0.9,0.4,1c0.6,0.2,0.8-0.5,1.4-0.4c0,0,0.1,0,0-0.1 c-0.2-0.3-0.6-0.3-1-0.4c-0.1,0,0.2-0.7,0.5-0.8c0.8-0.2,1.6-0.2,2.4,0c2.4,0.5,3.2,3.5,3.6,5.6c-0.7,0.5-1.6,0.8-2.4,1.1 c-1.4-2-3.1-3.7-5.3-5.3c-4.3-3.2-9.9-5.3-15.2-4.9c-0.9,0.1-1.7,0.2-2.4,0.5c-1.7-3.9-4.5-6.7-8.9-7.9C54.7,0,49.3,0.1,44.4,0 c-7.3-0.1-19.2,1.3-17.1,11.3c0,0.1,0.3,0.1,0.3,0C26.5,1.7,37.9,1.1,44.9,1.3c4.2,0.1,8.5,0.3,12.6,1c4.6,0.8,7.7,3.4,9.4,7.5 c-3.4,1.6-5.7,4.8-6.7,8.6c-0.3,1,1.3,1.5,1.6,0.4c0,0,0-0.1,0-0.1c0,0.1,0.1,0.1,0.2,0.1c7.8,1,13.9,6.2,18.8,12.2 c2.6,3.2,4.7,6.8,6.5,10.6c0.8,1.8,1.5,3.6,2.1,5.5c0.5,1.4,0.5,3.1,1.3,4.4c0.3,0.5,1.3,0.5,1.4-0.2c0.1-0.4,0.1-0.9,0.1-1.4 c0.8-2.8,2.1-5.3,3.1-7.9C96.7,38.6,96.6,35,96.1,31.3z M93.5,42.7c-0.6,1.6-1.2,3.2-1.7,4.8c-0.6-2.2-1.8-4.5-2.6-6.2 c-1.8-4.1-4.3-8-7.1-11.5c-4.7-5.9-12-12.1-20-11.4c0,0-0.1,0-0.1,0c1-3.3,2.9-5.7,5.6-7c0,0,0,0.1,0,0.1c0.3,1,1.9,0.5,1.5-0.4 c0-0.1-0.1-0.2-0.1-0.2c1.1-0.3,2.4-0.5,3.7-0.5c4.9,0.1,9.8,2.5,13.5,5.5c5.5,4.5,7.7,10.9,8.5,17.8C95,36.8,94.6,39.8,93.5,42.7z "/></g></svg>